<?xml version="1.0" encoding="UTF-8" standalone="no"?>
<!DOCTYPE svg PUBLIC "-//W3C//DTD SVG 1.1//EN" "http://www.w3.org/Graphics/SVG/1.1/DTD/svg11.dtd">
<svg width="100%" height="100%" viewBox="0 0 4538 3000" version="1.1" xmlns="http://www.w3.org/2000/svg" xmlns:xlink="http://www.w3.org/1999/xlink" xml:space="preserve" xmlns:serif="http://www.serif.com/" style="fill-rule:evenodd;clip-rule:evenodd;stroke-linejoin:round;stroke-miterlimit:2;">
    <g transform="matrix(4.16667,0,0,4.16667,0,0)">
        <rect x="0" y="0" width="1088" height="720" style="fill:rgb(246,235,192);"/>
        <path d="M649.521,239.634C669.627,239.733 684.378,263.412 689.913,275.22C729.279,230.103 748.611,272.664 753.966,297.162C777.888,286.398 792.189,288.486 800.847,298.26C805.14,309.582 811.845,316.566 809.757,325.251C815.382,325.917 820.422,326.835 824.337,327.888C832.239,326.43 834.498,323.433 839.358,321.3C835.524,290.313 874.503,286.92 886.428,298.26C884.034,287.118 883.728,280.629 890.676,267.534C872.64,228.735 923.364,247.617 931.203,252.18C964.062,219.627 989.469,258.84 997.146,275.22C1036.51,230.103 1055.84,272.664 1061.21,297.162C1071.92,292.338 1080.79,290.097 1088,289.962L1087.9,505.098L104.85,505.098L0,505.188L0,292.662C25.776,287.478 40.896,322.317 40.896,322.317C45.9,299.799 84.474,286.92 96.408,298.26C94.014,287.118 93.699,280.629 100.656,267.543C82.62,228.735 133.335,247.617 141.174,252.18C174.033,219.627 199.44,258.849 207.117,275.22C246.483,230.103 265.815,272.664 271.179,297.162C295.092,286.398 307.377,286.839 318.051,298.26C327.546,308.43 336.213,322.38 316.206,339.957C353.673,336.6 354.483,357.021 341.172,383.85C355.212,385.542 360.873,378.072 368.397,372.879C377.946,338.85 391.572,337.761 416.673,337.761C423.99,284.598 478.35,287.685 483.84,321.3C498.231,315.891 511.407,320.616 515.664,327.519C516.159,327.636 516.636,327.762 517.104,327.888C525.006,326.43 527.265,323.433 532.125,321.3C528.291,290.313 567.27,286.92 579.195,298.26C570.465,289.998 570.438,271.404 583.443,267.534C576.99,227.448 622.404,238.077 623.97,252.18C632.952,243.279 641.385,239.742 649.044,239.634L649.521,239.634Z" style="fill:rgb(234,217,138);fill-rule:nonzero;"/>
        <path d="M438.093,241.263C417.978,241.362 403.227,265.041 397.692,276.849C358.335,231.732 339.003,274.293 333.639,298.791C309.717,288.027 295.425,290.115 286.767,299.889C282.465,311.211 275.76,318.195 277.857,326.88C272.223,327.555 267.183,328.464 263.268,329.517C255.366,328.059 253.107,325.062 248.247,322.929C252.081,291.942 213.102,288.549 201.177,299.889C203.571,288.747 203.877,282.258 196.929,269.163C214.965,230.364 164.241,249.246 156.402,253.809C123.552,221.256 98.136,260.478 90.459,276.849C51.093,231.732 31.77,274.293 26.406,298.791C15.696,293.967 0,291.276 0,291.276L0,506.529L55.224,506.727L1087.9,506.727L1088,294.291C1062.22,289.107 1046.72,323.946 1046.72,323.946C1041.71,301.428 1003.13,288.558 991.206,299.889C993.6,288.747 993.906,282.258 986.958,269.172C1004.99,230.364 954.27,249.246 946.431,253.809C913.572,221.256 888.165,260.478 880.488,276.849C841.122,231.732 821.79,274.293 816.426,298.791C792.513,288.027 780.228,288.477 769.554,299.889C760.059,310.059 751.401,324.009 771.399,341.586C733.941,338.229 733.131,358.65 746.433,385.479C732.393,387.171 726.732,379.701 719.208,374.508C709.668,340.479 696.042,339.39 670.932,339.39C663.615,286.227 609.255,289.314 603.765,322.929C589.374,317.52 576.207,322.245 571.941,329.148C571.446,329.265 570.969,329.391 570.501,329.517C562.599,328.059 560.34,325.062 555.48,322.929C559.314,291.942 520.335,288.549 508.41,299.889C510.804,288.747 511.119,282.258 504.162,269.163C522.198,230.364 471.474,249.246 463.635,253.809C454.653,244.908 446.22,241.371 438.561,241.263L438.093,241.263Z" style="fill:rgb(228,207,115);fill-rule:nonzero;"/>
        <path d="M1087.9,3.092L735.821,114.342C733.035,119.204 730.678,124.26 728.789,129.522C723.739,169.96 749.001,241.146 790.242,212.39C786.983,261.192 823.374,266.741 854.176,245.262C865.096,264.662 894.061,266.304 902.731,244.339C903.576,290.205 951.695,266.254 953.478,253.844C953.478,253.844 955.226,274.419 966.236,274.384C985.385,274.322 989.28,245.95 989.28,245.95C1010.14,287.672 1037.17,256.201 1038.56,238.479C1068.29,252.143 1086.57,237.194 1088,211.579L1087.9,3.092Z" style="fill:rgb(69,81,35);fill-rule:nonzero;"/>
        <path d="M1060.94,28.857L837.295,98.228C835.175,101.88 833.379,105.68 831.935,109.639C821.052,146.431 843.264,194.987 877.914,172.329C875.264,209.092 902.665,213.417 925.961,197.355C932.401,212.017 951.73,213.37 962.554,196.853C963.008,231.418 999.365,213.562 1000.76,204.217C1000.76,204.217 1001.99,219.729 1010.29,219.746C1024.72,219.775 1027.77,198.411 1027.77,198.411C1043.32,229.934 1064.93,192.978 1064.93,192.978L1060.94,28.857Z" style="fill:rgb(49,57,24);fill-rule:nonzero;"/>
        <path d="M554.734,166.555C524.44,155.052 515.922,125.416 555.206,128.675C550.634,73.33 594.909,57.84 627.5,81.265C658.068,56.7 685.205,50.122 722.95,73.428C748.361,100.044 731.65,130.452 725.825,138.557C752.216,121.417 758.449,134.083 762.563,159.229C785.904,145.412 808.372,169.604 783.749,193.565C790.681,225.112 753.109,237.252 730.571,221.257C730.571,221.257 690.494,239.417 673.691,200.458C650.101,229.253 625.758,239.843 605.845,207.113C562.057,216.884 545.138,197.418 554.734,166.555Z" style="fill:rgb(49,57,24);fill-rule:nonzero;"/>
        <path d="M868.725,284.814L868.248,284.814C860.589,284.913 852.165,288.45 843.174,297.351C835.335,292.797 784.62,273.906 802.656,312.714C795.699,325.809 796.014,332.298 798.408,343.44C786.474,332.1 747.504,335.493 751.329,366.48C746.478,368.613 744.219,371.61 736.308,373.068C735.849,372.942 735.363,372.816 734.868,372.699C730.611,365.787 717.444,361.071 703.053,366.48C697.554,332.865 643.203,329.778 635.886,382.941C610.776,382.941 597.15,384.03 587.61,418.059C580.077,423.252 574.416,430.722 560.385,429.021C575.325,400.887 580.167,375.948 535.41,385.137C555.417,367.56 546.759,353.601 537.255,343.44C526.59,332.019 514.305,331.569 490.383,342.342C485.019,317.844 465.687,275.283 426.33,320.4C418.653,304.029 393.237,264.807 360.387,297.351C352.539,292.797 301.824,273.915 319.86,312.714C312.903,325.809 313.218,332.298 315.612,343.44C303.687,332.1 264.708,335.493 268.542,366.48C265.545,367.794 263.538,369.441 260.586,370.845C257.643,369.441 255.636,367.794 252.639,366.48C247.419,326.439 216.045,330.651 205.569,343.44C207.963,332.298 208.278,325.809 201.321,312.714C219.357,273.915 168.633,292.797 160.794,297.351C151.812,288.45 143.379,284.922 135.72,284.814C115.371,284.544 100.431,308.502 94.851,320.4C55.485,275.283 36.162,317.844 30.798,342.342C17.811,336.501 7.956,334.44 0,335.349L0,550.494L197.127,550.269L1087.9,550.269L1087.9,337.491C1072.94,337.194 1055.98,345.537 1058.56,366.48C1053.71,368.613 1051.45,371.61 1043.54,373.068C1039.63,372.015 1034.59,371.097 1028.96,370.431C1031.06,361.746 1024.35,354.762 1020.05,343.44C1011.39,333.666 997.092,331.569 973.179,342.342C967.815,317.844 948.483,275.283 909.117,320.4C903.582,308.592 888.84,284.913 868.725,284.814Z" style="fill:rgb(136,149,65);fill-rule:nonzero;"/>
        <path d="M0,57.344L0,244.157C5.043,244.922 10.243,243.95 15.457,241.64C29.628,275.255 82.014,278.344 74.782,225.182C98.596,225.182 111.229,224.097 111.21,190.071C116.962,184.873 120.345,177.404 134.108,179.096C127.435,207.237 129.494,232.175 169.494,222.988C155.206,240.562 168.284,247.811 178.861,264.685C189.678,274.46 203.799,276.55 223.614,265.78C221.331,292.229 234.679,324.285 268.691,301.137C264.32,325.702 316.024,341.947 321.191,299.897C319.177,319.388 385.059,331.197 393.265,295.408C396.37,282.315 394.341,275.826 389.099,264.685C397.193,279.145 429.999,277.38 427.608,241.64C431.646,239.512 432.99,236.512 440.099,235.058C467.023,242.154 540.76,242.889 497.343,206.529C532.281,188.113 472.135,159.566 455.71,187.876C461.63,162.913 435.198,162.519 414.078,159.348C427.017,145.707 445.748,108.766 411.997,111.068C420.684,104.962 453.887,87.424 446.343,57.853L0,57.344Z" style="fill:rgb(69,81,35);fill-rule:nonzero;"/>
        <path d="M35.503,79.975L51.973,236.131C56.28,236.328 60.858,235.451 65.036,233.047C79.926,260.044 124.23,257.996 113.439,213.956C133.454,211.845 143.975,209.813 140.943,181.217C145.317,176.338 147.498,169.76 159.215,169.962C156.102,194.206 160.043,214.983 192.847,203.716C182.396,219.753 194.03,224.686 204.417,237.931C214.375,245.188 226.428,245.692 242.127,234.884C242.553,257.316 256.614,283.075 283.148,260.605C281.652,281.638 326.547,290.709 327.163,254.909C327.198,271.469 383.617,275.554 387.341,244.747C388.791,233.468 386.509,228.193 381.116,219.294C389.201,230.73 416.617,226.338 411.439,196.512C414.645,194.365 415.508,191.725 421.355,189.872C444.613,193.45 506.652,187.531 466.938,160.82C494.669,142.245 441.587,123.583 430.293,148.834C433.055,127.328 410.804,129.34 392.773,128.547C402.439,115.935 414.907,83.227 386.744,88.154C393.504,82.251 419.856,64.568 410.894,40.382L35.503,79.975Z" style="fill:rgb(49,57,24);fill-rule:nonzero;"/>
        <path d="M1075.85,179.937L1032.57,207.216C1033.31,197.163 1033.73,181.944 1034.54,179.28C1011.81,179.28 985.14,133.434 964.431,145.152C972.324,189.828 978.03,299.475 980.145,350.001C980.145,419.895 977.004,492.192 965.61,553.617C986.175,547.848 1008.53,553.824 1027.27,558.072C1021.73,533.016 1023.23,497.646 1018.35,470.034C1015.87,455.994 1023.37,401.769 1026.6,394.461C1026.79,394.02 1027.49,287.028 1030.72,223.686L1081.92,194.544L1075.85,179.937ZM36.153,159.525C38.961,168.705 41.4,226.026 43.101,280.953L0,243.468L0,272.709L44.271,308.709C45.027,336.789 45.495,374.517 45.576,374.706C48.807,382.014 56.304,436.248 53.82,450.288C48.951,477.891 46.008,513.261 40.473,538.317C59.202,534.078 81.567,528.102 102.123,533.871C90.729,472.446 87.597,400.14 87.597,330.255C89.703,279.729 95.409,221.994 103.302,177.309C82.593,165.6 58.887,159.525 36.153,159.525ZM358.245,106.857C335.511,106.857 331.173,112.932 310.464,124.641C318.357,169.326 324.063,227.061 326.178,277.587C326.178,347.472 323.037,419.778 311.643,481.203C332.208,475.434 354.564,481.41 373.302,485.649C367.767,460.593 364.824,425.223 359.946,397.62C357.462,383.58 364.968,329.346 368.19,322.038C368.451,321.444 353.034,123.894 358.245,106.857ZM853.83,82.719C831.087,82.719 807.381,88.794 786.672,100.503C794.574,145.188 800.28,202.923 802.386,253.44C802.386,323.334 799.254,395.631 787.86,457.065C808.416,451.296 830.781,457.272 849.51,461.511C843.975,436.455 841.032,401.085 836.154,373.482C833.679,359.442 841.176,305.208 844.398,297.9C844.497,297.675 845.127,269.217 846.153,233.028L875.709,213.534L872.208,198.999L847.089,201.609C848.772,148.5 851.13,91.521 853.83,82.719ZM722.16,82.719C699.417,82.719 675.711,88.794 655.002,100.503C662.895,145.188 668.61,202.923 670.716,253.44C670.716,263.754 670.644,274.131 670.491,284.508L654.318,269.811L643.455,280.665L670.104,303.705C668.745,357.219 664.857,410.292 656.181,457.065C676.746,451.296 699.111,457.272 717.84,461.511C712.305,436.455 709.362,401.085 704.484,373.482C702.009,359.442 709.506,305.208 712.728,297.9C712.764,297.819 712.899,293.184 713.052,287.055C713.205,280.926 713.34,276.003 713.484,270.225L754.425,202.257L742.086,196.056L714.807,221.787C716.508,163.935 719.118,92.655 722.16,82.719ZM453.114,73.944C458.325,90.972 462.276,288.531 462.537,289.125C465.768,296.424 473.265,350.658 470.781,364.698C465.903,392.31 462.96,427.68 457.434,452.736C476.163,448.488 498.519,442.512 519.084,448.281C507.69,386.856 504.549,314.55 504.549,244.665C506.655,194.139 512.37,136.404 520.263,91.728C499.554,80.01 475.848,73.944 453.114,73.944Z" style="fill:rgb(82,52,26);fill-rule:nonzero;"/>
        <path d="M1059.54,321.082C1066.8,321.063 1073.6,324.428 1078.76,333.456C1080.41,332.835 1088,335.82 1087.9,331.021L1088,373.773L1087.9,545.156L664.166,499.682L662.791,415.674C662.791,404.662 713.715,377.891 745.499,410.137C736.566,402.597 731.71,377.91 756.021,375.998C743.938,362.106 771.974,344.653 784.588,356.214C789.727,333.668 842.359,341.238 826.158,377.654C845.737,372.198 862.281,391.495 846.81,408.03C851.311,412.844 861.225,421.223 873.245,421.104C869.977,397.307 873.959,376.959 907.642,388.228C896.874,372.43 911.658,358.998 919.405,354.75C930.753,348.527 941.963,347.285 958.099,357.989C969.963,338.967 985.96,309.997 1017.48,346.079C1025.38,337.548 1043.58,321.125 1059.54,321.082Z" style="fill:rgb(90,104,45);fill-rule:nonzero;"/>
        <path d="M1057.4,365.221C1063.54,365.207 1075.81,368.865 1080.17,376.5C1081.57,375.975 1084.54,375.291 1088,374.568L1088,424.41C1088,468.117 1087.92,511.824 1087.9,555.529C549.796,525.705 935.46,422.818 935.46,422.818C935.46,422.818 938.857,398.102 945.408,394.508C955.005,389.245 964.486,388.195 978.131,397.248C978.703,382.572 1004.91,360.95 1028.35,387.176C1031.77,375.886 1041.45,365.258 1057.4,365.221Z" style="fill:rgb(69,81,35);fill-rule:nonzero;"/>
        <path d="M45.955,245.115C13.776,248.331 -3.123,213.272 35.776,202.434C17.924,149.847 58.578,129.903 95.877,144.729C119.577,113.487 144.31,100.526 186.579,113.988C217.684,133.65 208.843,167.202 205.156,176.477C226.606,153.452 235.723,164.229 245.811,187.627C275.012,175.572 303.118,195.26 274.687,215.803C267.899,247.019 257.874,247.217 238.45,248.156C203.922,258.158 195.329,282.894 169.583,249.169C153.677,282.825 132.627,299 105.374,272.073C72.009,294.867 46.644,278.39 45.955,245.115Z" style="fill:rgb(49,57,24);fill-rule:nonzero;"/>
        <path d="M485.906,0C483.852,2.101 481.908,4.315 480.125,6.657C467.215,34.782 469.212,92.105 505.656,80.719C492.129,115.31 522.091,129.192 549.312,120.688C558.632,133.741 567.282,134.206 582.843,129.344C594.119,135.95 595.958,139.479 600.406,147.219C591.322,144.917 585.458,148.092 575.718,148.656C600.175,173.647 614.594,185.262 642.375,170.938C658.664,186.157 694.856,194.275 707.5,156.344C714.875,191.114 763.666,179.878 770.718,149.219C794.152,182.156 834.087,160.774 837.937,142.781C865.192,180.881 897.97,171.406 912.875,137.75L912.875,0L485.906,0Z" style="fill:rgb(92,107,47);fill-rule:nonzero;"/>
        <path d="M701.035,64.37C697.614,96.615 740.249,94.677 744.082,88.762C744.082,88.762 741.902,92.184 741.44,93.985C741.231,94.803 741.119,95.61 741.096,96.403C740.868,96.968 740.679,97.539 740.532,98.114C737.665,122.914 764.107,134.415 789.753,120.583C789.753,120.583 803.417,132.691 811.937,133.509C817.733,134.065 824.074,130.377 828.426,127.746C831.042,134.379 840.684,139.518 853.937,141.203C859.277,144.875 868.019,147.201 878.45,147.201C897.361,147.201 914.656,139.547 917.077,130.106C918.313,125.285 915.428,120.933 909.794,117.825C909.053,110.779 900.716,104.992 888.288,102.478L888.36,102.214C890.533,93.739 882.08,86.466 868.171,83.355C864.682,81.433 860.366,79.89 855.42,78.833C853.401,76.925 850.441,75.326 846.78,74.173C843.271,70.741 837.393,68.069 829.99,66.642C830.025,66.52 830.06,66.398 830.091,66.276C833.152,54.342 816.254,44.667 792.349,44.667C784.516,44.667 776.902,45.706 770.097,47.522C764.018,45.189 737.966,35.563 723.019,40.837C712.896,44.409 703.945,53.02 701.035,64.37Z" style="fill:rgb(69,81,35);fill-rule:nonzero;"/>
        <path d="M529,0C523.06,3.927 519.531,8.795 519.531,14.094C519.531,20.784 525.154,26.822 534.156,31.094C529.477,34.224 526.687,38.107 526.687,42.313C526.687,42.674 526.709,43.051 526.75,43.407C520.547,45.652 516.531,49.29 516.531,53.407C516.531,54.549 516.825,55.638 517.406,56.688C517.09,57.75 516.937,58.832 516.937,59.938C516.937,63.232 518.4,66.383 521,69.188C520.748,69.184 520.474,69.188 520.218,69.188C512.02,69.188 504.829,71.33 500.781,74.563C493.857,77.469 488.612,81.33 485.875,85.75C484.806,89.493 484.298,92.968 484.25,96.157C487.527,107.712 507.417,116.594 531.468,116.594C535.153,116.594 538.744,116.395 542.187,116C551.098,121.002 564.067,124.156 578.531,124.156C580.195,124.156 581.848,124.113 583.468,124.031C589,128.142 597.497,131.164 607.437,132.344C610.401,136.802 617.051,140.412 625.593,142.281C614.912,144.191 607.281,149.292 607.281,155.281C607.281,162.903 619.67,169.094 634.937,169.094C650.205,169.094 662.562,162.903 662.562,155.281C662.562,149.981 656.591,145.375 647.812,143.063C661.787,141.12 672.031,134.721 672.031,127.125C672.031,121.28 665.98,116.162 656.812,113.219C656.816,113.115 656.812,113.01 656.812,112.906C656.812,103.349 643.36,95.354 625.406,93.375C623.482,89.908 620.057,86.753 615.5,84.094C611.489,79.393 602.391,76.014 591.656,75.719C599.109,72.108 604.031,67.201 604.906,61.719C621.721,58.762 633.75,50.781 633.75,41.375C633.75,33.064 624.354,25.826 610.562,22.219C612.439,19.686 613.468,16.953 613.468,14.094C613.468,8.795 609.939,3.927 604,0L529,0Z" style="fill:rgb(69,81,35);fill-rule:nonzero;"/>
        <path d="M0,0L0,151.25C0,151.25 57.253,130.438 85.843,115.281C80.055,126.939 76.166,145.81 90.125,156.875C82.505,163.569 100.671,187.305 119.531,178.813C134.369,212.427 186.041,217.818 178.469,164.656C203.402,164.656 216.644,163.589 216.625,129.563C222.647,124.365 226.183,116.901 240.594,118.594C233.607,146.734 235.776,171.656 277.656,162.469C262.696,180.042 276.394,187.282 287.469,204.156C298.794,213.931 313.566,216.02 334.312,205.25C343.895,227.166 369.187,263.959 404.062,227.219C406.636,248.389 436.718,266.653 461.437,236.438C468.708,245.162 499.841,257.269 511.937,234.875C516.853,225.774 513.083,215.296 507.593,204.156C520.891,215.654 555.245,212.59 547.906,181.125C552.134,178.996 553.525,175.985 560.968,174.531C565.459,202.832 654.015,193.41 620.906,146C654.476,116.97 598.415,81.979 577.312,127.344C573.092,91.962 551.273,97.425 533.75,98.844C551.765,96.369 570.148,56.379 531.562,50.563C540.38,44.644 573.317,27.956 568.125,0L0,0Z" style="fill:rgb(96,114,49);fill-rule:nonzero;"/>
        <path d="M181.938,0C181.686,0.857 181.563,1.734 181.563,2.625C181.563,4.534 182.175,6.369 183.281,8.094C182.889,9.02 182.656,9.985 182.656,10.969C182.656,17.323 191.288,22.684 203,24.282C202.019,25.933 201.469,27.69 201.469,29.5C201.469,36.723 209.854,42.967 222.031,45.938C216.972,49.558 214,53.939 214,58.688C214,62.856 216.301,66.755 220.281,70.094C220.87,71.855 221.86,73.551 223.188,75.157C217.462,73.943 211.144,73.282 204.531,73.282C187.603,73.282 172.755,77.679 164.281,84.313C148.583,88.255 137.813,96.379 137.813,105.75C137.813,117.046 153.434,126.494 174.5,129.031C172.891,130.517 171.953,132.21 171.813,134C163.474,138.095 158.281,143.793 158.281,150.094C158.281,158.047 166.519,165.042 178.969,169.063C178.852,167.638 178.685,166.171 178.469,164.656C203.402,164.656 216.644,163.589 216.625,129.563C222.647,124.365 226.183,116.901 240.594,118.594C233.607,146.734 235.776,171.656 277.656,162.469C273.397,167.472 271.461,171.648 271.125,175.438C277.11,179.788 287.129,182.625 298.5,182.625C316.839,182.625 331.718,175.218 331.718,166.063C331.718,165.172 331.583,164.29 331.312,163.438C338.878,160.866 343.843,156.54 343.843,151.625C343.843,149.165 342.599,146.834 340.406,144.813C340.711,144.816 341.005,144.813 341.312,144.813C362.524,144.813 379.718,136.246 379.718,125.656C379.718,120.333 375.392,115.505 368.375,112.031C389.223,111.804 406.73,104.835 412.5,95.313C415.288,92.883 416.875,90.063 416.875,87.063C416.875,82.005 412.361,77.485 405.218,74.438C398.157,69.698 387.606,66.306 375.468,65.25C375.385,64.848 375.279,64.459 375.156,64.063C376.617,63.077 377.897,62.022 378.968,60.907C397.83,58.147 411.593,49.465 411.593,39.157C411.593,26.63 391.249,16.469 366.156,16.469C359.329,16.469 352.873,17.216 347.062,18.563C347.326,17.597 347.468,16.597 347.468,15.594C347.468,9.472 342.384,3.947 334.218,0L257.625,0C255.208,1.943 253.781,4.231 253.781,6.688C253.781,6.844 253.801,7.002 253.813,7.157C253.23,7.264 252.663,7.381 252.094,7.5C252.96,5.957 253.406,4.307 253.406,2.625C253.406,1.734 253.283,0.857 253.031,0L181.938,0Z" style="fill:rgb(87,103,45);fill-rule:nonzero;"/>
        <path d="M49.401,315.081C32.715,309.213 14.013,318.312 8.847,331.821C7.2,331.2 0,329.382 0,329.382L0,543.384L480.15,495.135C480.15,495.135 466.785,413.964 434.394,400.986C414.837,393.156 394.605,419.256 394.605,419.256C394.605,419.256 371.592,389.133 342.108,408.501C350.271,400.905 356.445,385.758 337.329,372.447C348.255,352.854 325.944,343.494 311.157,356.976C295.965,330.597 250.515,332.901 261.45,376.02C240.912,378.225 230.112,380.286 233.136,408.312C228.636,413.127 226.386,419.589 214.362,419.472C217.629,395.676 213.651,375.327 179.964,386.595C190.737,370.791 178.821,366.039 168.201,353.115C158.013,346.068 145.647,345.654 129.509,356.355C119.385,337.77 99.963,307.944 70.128,344.448C70.047,334.179 66.087,320.958 49.401,315.081Z" style="fill:rgb(90,104,45);fill-rule:nonzero;"/>
        <path d="M48.584,344.427C31.785,339.033 15.64,350.504 8.85,362.793C7.197,362.172 4.09,361.213 0,360.357L0,574.494L480.154,526.111L434.39,431.961C434.39,431.961 290.133,449.656 214.365,450.439C217.632,426.645 213.65,406.295 179.967,417.564C190.736,401.768 178.818,397.008 168.205,384.088C158.012,377.037 145.646,376.622 129.509,387.326C119.383,368.738 99.964,338.913 70.125,375.416C70.372,360.91 65.383,349.821 48.584,344.427Z" style="fill:rgb(69,81,35);fill-rule:nonzero;"/>
        <path d="M942.312,415.781C895.294,415.909 845.578,419.661 795.781,427.969L601.531,480.031L435.75,435.594C308.537,435.59 199.851,407.782 61.031,425.188C41.248,427.668 21.148,430.566 0,435.094L0,720L1088,720L1088,427.969C1045.43,420.147 995.599,415.637 942.312,415.781Z" style="fill:rgb(49,57,24);fill-rule:nonzero;"/>
        <path d="M131.841,474.287C89.508,474.287 41.992,479.4 0,491.848L0,678.715C44.761,676.148 92.019,668.109 123.689,650.342C123.689,593.555 121.183,530.775 131.841,474.287Z" style="fill:rgb(69,81,35);fill-rule:nonzero;"/>
        <path d="M620.568,409.563C459.252,409.761 252.909,432.846 198.855,458.784L203.499,448.056C151.272,448.11 263.691,531.261 298.26,544.491C347.4,563.301 937.863,570.789 1088,572.436L1088,489.15C1024.56,475.83 839.034,442.773 799.344,435.402C770.265,430.002 696.6,409.464 620.568,409.563Z" style="fill:rgb(69,81,35);fill-rule:nonzero;"/>
        <path d="M681.839,443.283C617.918,450.051 548.526,471.584 485.151,510.078C417.397,478.285 303.134,453.354 224.755,453.096C222.218,467.885 222.907,482.643 225.23,497.146C250.402,517.795 282.462,538.445 298.262,544.494C347.4,563.301 937.865,570.965 1088,572.615L1088,530C1037.51,509.195 980.728,522.284 936.439,507.313C820.708,468.191 776.014,433.314 681.839,443.283Z" style="fill:rgb(83,98,43);fill-rule:nonzero;"/>
        <path d="M480.992,6.701C476.478,6.744 471.626,7.292 466.65,8.393C446.745,12.795 432.387,24.416 434.585,34.353C435.868,40.152 442.503,44.095 451.761,45.499C451.683,53.499 462.091,61.15 476.725,64.537C457.045,61.753 440.143,67.179 438.417,77.105C437.114,84.608 444.837,92.614 457.09,97.814C456.978,98.19 456.888,98.576 456.827,98.966C455.637,106.591 464.872,114.615 478.545,118.798C468.704,123.098 462.538,129.454 463.033,136.088C463.62,143.956 473.415,150.046 487.046,152.166C475.541,154.95 467.617,160.798 467.49,167.699C467.426,171.107 469.27,174.331 472.527,177.104C470.705,177.251 468.843,177.478 466.958,177.794C464.597,178.19 462.317,178.703 460.14,179.315C453.828,177.344 445.44,176.867 436.503,178.354C418.761,181.305 405.573,190.878 407.046,199.736C408.52,208.593 424.098,213.378 441.84,210.427C444.107,210.05 446.298,209.565 448.395,208.987C454.762,211.02 463.279,211.517 472.361,209.993C490.172,207.004 503.403,197.373 501.911,188.481C501.78,187.697 501.537,186.948 501.193,186.23C501.812,186.257 502.436,186.275 503.063,186.287C504.377,186.311 505.673,186.3 506.953,186.254C521.106,186.434 532.945,182.04 536.698,175.539C538.334,173.538 539.254,171.339 539.297,169.025C539.439,161.333 529.85,154.591 516.263,151.796C531.656,149.017 542.765,141.359 542.258,133.059C542.193,131.991 541.94,130.957 541.512,129.964C540.791,122.884 532.587,117.277 520.872,114.771C522.431,113.199 523.427,111.398 523.74,109.405C524.609,103.831 519.909,98.044 511.973,93.698C512.661,92.586 513.128,91.394 513.348,90.129C515.031,80.444 501.676,69.918 482.951,65.676C483.918,65.809 484.899,65.922 485.891,66.017C505.665,67.911 522.461,61.446 523.406,51.574C523.578,49.794 523.219,48.022 522.405,46.306C528.222,43.564 531.948,39.667 532.394,35.059C533.276,25.964 521.107,17.122 504.114,13.685C499.917,9.149 491.347,6.602 480.992,6.701Z" style="fill:rgb(104,124,53);fill-rule:nonzero;"/>
        <path d="M253.566,32.694C190.038,33.705 132.245,48.287 74.628,63.66C95.769,114.164 111.935,178.436 119.721,236.939C113.25,229.023 101.591,214.829 93.366,207.167C83.979,198.421 56.881,176.083 44.859,166.774L50.213,207.859C62.016,218.053 70.539,224.173 79.059,235.788C90.589,251.503 92.637,270.543 93.438,282.929C100.748,286.362 114.846,293.406 120.618,298.599C116.667,375.777 100.861,463.361 75.549,526.416C132.88,518.385 221.39,507.801 273.805,512.201C257.855,481.533 248.943,438.025 234.776,404.18C228.939,390.236 236.206,304.425 243.893,267.442C255.417,257.824 276.568,253.452 288.365,243.067C286.24,242.63 279.846,239.095 276.064,239.985C284.974,229.249 297.863,222.116 313.54,215.792C323.85,218.196 340.323,219.7 350.982,223.977C374.365,206.707 419.612,209.141 427.536,172.825C420.034,179.593 414.263,186.205 399.765,186.436C401.919,184.212 404.068,181.377 407.317,178.085C387.968,182.709 349.944,197.75 349.944,197.75C349.944,197.75 320.113,187.221 304.263,184.664C288.851,190.93 266.753,199.583 248.075,216.206C246.059,158.638 243.091,48.326 253.566,32.694Z" style="fill:rgb(82,52,26);fill-rule:nonzero;"/>
        <path d="M44.604,166.806C46.392,180.534 48.182,194.261 49.969,207.989C59.283,216.077 69.272,223.549 76.855,233.325C83.088,240.981 87.302,250.09 89.752,259.622C91.766,267.289 92.697,275.194 93.192,283.098C101.233,286.938 109.263,290.919 116.657,295.879C117.929,296.753 119.194,297.684 120.35,298.708C120.255,300.682 120.135,302.653 120.025,304.626C128.619,302.216 140.089,288.241 140.089,288.241L141.392,252.749C141.392,252.749 130.284,237.799 122.041,233.723C120.982,233.19 119.903,232.697 118.813,232.23C118.994,233.511 119.166,234.794 119.348,236.075C111.645,226.718 103.931,217.292 95.352,208.71C89.466,203.054 83.157,197.835 76.93,192.549C66.256,183.604 55.502,174.74 44.518,166.182C44.547,166.39 44.575,166.598 44.604,166.806Z" style="fill:rgb(70,45,23);fill-rule:nonzero;"/>
        <path d="M105.64,161.242C111.656,186.522 116.435,212.245 119.721,236.939C113.25,229.023 101.592,214.828 93.366,207.166C88.127,202.285 66.801,184.453 66.801,184.453L93.677,228.468C93.677,228.468 118.663,251.79 124.917,265.252C127.339,245.004 131.788,213.02 131.788,213.02C131.788,213.02 125.672,182.135 121.68,166.169C115.947,162.707 110.648,161.3 105.64,161.242Z" style="fill:rgb(62,39,20);fill-rule:nonzero;"/>
        <path d="M214.541,109.179L219.074,258.775L204.827,342.963L212.598,375.991L206.77,444.637C206.77,444.637 197.703,495.924 197.703,520.406C210.705,514.826 230.023,518.966 244.978,515.225C224.041,502.543 231.378,445.285 231.378,445.285L219.722,394.771L233.969,210.853L214.541,109.179Z" style="fill:rgb(105,67,31);fill-rule:nonzero;"/>
        <path d="M234.569,228.411C235.116,248.723 224.632,265.394 211.152,265.646C197.672,265.898 186.301,249.636 185.753,229.324C185.206,209.011 195.69,192.341 209.17,192.088C222.65,191.836 234.021,208.099 234.569,228.411Z" style="fill:rgb(123,78,37);fill-rule:nonzero;"/>
        <path d="M203.438,193.229C192.842,197.33 185.286,212.002 185.753,229.325C186.22,246.647 194.559,261.019 205.364,264.72C215.959,260.619 223.516,245.949 223.049,228.627C222.582,211.305 214.243,196.929 203.438,193.229Z" style="fill:rgb(62,39,20);fill-rule:nonzero;"/>
        <path d="M157.476,269.929L152.229,295.614L145.555,311.438L145.77,328.224L147.453,356.195L139.049,389.529L138.858,400.898L140.812,433.709L134.531,455.436C134.531,455.436 116.973,503.139 109.369,527.678C116.904,531.146 125.452,530.924 132.789,526.723C136.726,524.75 140.499,522.242 144.289,519.818C148.078,500.721 160.157,464.561 160.157,464.561L160.304,441.197L153.78,395.277L158.038,368.236L165.53,315.84L162.213,298.934L157.479,269.673L157.476,269.803L157.476,269.929ZM151.976,190.776C150.86,190.763 149.778,191.163 148.673,191.311C146.569,200.607 147.246,210.626 148.933,219.933C151.386,234.073 157.08,262.089 157.08,262.089C157.08,262.089 157.576,220.784 156.396,200.177C156.146,197.313 155.825,194.21 154.373,191.923C153.735,191.132 152.851,190.741 151.976,190.776Z" style="fill:rgb(105,67,31);fill-rule:nonzero;"/>
        <path d="M0,0L0,151.031C0,151.031 5.583,159.321 15.937,160.094C36.721,161.646 33.218,138 33.218,138C48.104,154.399 67.804,142.593 79.25,124.031C79.25,124.031 64.253,150.179 87.562,159.188C73.67,178.339 96.702,193.442 117.188,181.125C132.127,214.74 187.343,217.818 179.719,164.656C204.825,164.656 218.144,163.589 218.125,129.563C225.217,131.562 237.767,136.445 255.219,123.688C274.364,109.691 261.187,78.782 261.187,78.782C261.187,78.782 290.222,85.506 297.219,66.938C304.631,47.265 285.781,33.532 285.781,33.532C306.679,36.944 321.001,28.987 312.937,0L0,0Z" style="fill:rgb(109,132,55);fill-rule:nonzero;"/>
        <path d="M713.156,477.094C593.664,477.504 505.459,536.645 377.343,592.469C402.92,614.979 430.167,636.809 461.125,643.688C496.931,643.316 601.68,682.061 718.125,720L1088,720L1088,565.875C1046.77,544.635 951.092,539.574 918.906,525.75C837.33,490.711 771.513,476.893 713.156,477.094Z" style="fill:rgb(103,121,51);fill-rule:nonzero;"/>
        <path d="M560.625,509.125C539.52,517.389 518.36,526.834 496.562,537C480.213,565.348 472.309,603.408 470.656,644.281C513.209,649.303 610.679,684.992 718.125,720L992.625,720C975.491,696.613 947.501,663.043 932.218,651.156C856.806,592.502 722.396,568.105 631.468,599.813C619.097,573.105 597.557,531.906 560.625,509.125Z" style="fill:rgb(69,81,35);fill-rule:nonzero;"/>
        <path d="M252.656,485.031C165.006,484.992 77.399,503.543 0,541.375L0,720L932.375,720C871.687,650.645 759.112,592.961 624.062,614.313C529.414,530.453 391.361,485.092 252.656,485.031Z" style="fill:rgb(137,161,60);fill-rule:nonzero;"/>
        <path d="M258.765,503.031C187.712,501.621 122.878,520.552 60.123,546.088C38.22,555.002 0,583.74 0,583.74C0,583.74 22.041,602.973 51.427,616.117C80.814,629.26 125.081,643.514 177.598,654.389C236.361,666.559 325.833,678.025 396.988,668.932C453.382,661.725 558.811,615.049 558.811,615.049L559.342,613.451C558.831,613.518 558.318,613.586 557.805,613.658C482.397,544.188 371.208,505.262 258.765,503.031Z" style="fill:rgb(159,185,59);fill-rule:nonzero;"/>
        <path d="M872.322,290.658C867.071,303.664 875.92,317.456 883.427,323.889C896.155,332.262 1081.27,355.772 1088,350.953L1088,310.436C987.254,319.29 872.322,290.658 872.322,290.658Z" style="fill:rgb(82,52,26);fill-rule:nonzero;"/>
        <path d="M646.5,0C647.396,4.263 650.443,9.135 656.25,14.344C659.714,46.101 696.792,40.154 704.718,31.094C692.883,45.9 717.293,95.184 757.25,58.594C763.592,92.155 773.019,107.839 818.687,88.125C846.903,124.28 877.78,101.427 880.625,67.563C913.027,67.154 931.203,42.264 893.187,31.844C898.656,20.005 900.829,9.302 900.468,0L646.5,0Z" style="fill:rgb(96,114,49);fill-rule:nonzero;"/>
        <path d="M793.093,0C790.499,2.881 789.062,6.075 789.062,9.438C789.062,17.772 797.91,25.08 811.187,29.125C804.443,32.458 800.281,37.076 800.281,42.188C800.281,48.484 806.618,54.029 816.281,57.344C814.186,59.465 813,61.851 813,64.375C813,71.264 821.768,77.126 834.031,79.344C836.949,80.71 840.355,81.834 844.125,82.594C843.946,83.355 843.875,84.122 843.875,84.907C843.875,85.197 843.881,85.495 843.906,85.782C842.455,87.388 841.625,89.155 841.625,91.032C841.625,96.945 849.653,101.93 860.562,103.406C871.432,97.526 879.26,83.803 880.625,67.563C885.451,67.502 889.944,66.894 894,65.875C892.633,62.555 888.547,59.743 882.937,58.032C879.226,55.432 874.009,53.404 867.937,52.25C871.732,49.359 873.937,45.903 873.937,42.188C873.937,36.69 869.128,31.746 861.468,28.375C873.493,24.217 881.343,17.293 881.343,9.438C881.343,6.076 879.907,2.881 877.312,0L793.093,0Z" style="fill:rgb(87,103,45);fill-rule:nonzero;"/>
        <path d="M885.812,0C878.1,4.426 874.792,10.907 879.687,19.907C857.574,25.276 823.347,41.579 857.968,73.907C842.496,96.353 859.303,128.132 895.218,121.188C886.572,149.409 908.576,176.342 944.875,156.094C944.875,185.647 990.524,198.092 1011.59,169.594C1002.29,196.577 1055.59,211.07 1073.66,187.594C1076.24,193.22 1081.65,196.105 1088,196.719L1088,0L885.812,0Z" style="fill:rgb(109,132,55);fill-rule:nonzero;"/>
        <path d="M713.144,477.094C700.488,477.137 688.186,477.844 676.147,479.131C659.071,506.063 742.463,499.268 753.146,509.949C772.713,529.518 715.623,534.551 743.222,552.949C763.931,566.756 808.136,549.598 831.427,557.361C849.131,563.264 869.326,562.139 877.732,577.207C883.633,587.787 872.041,604.551 888.514,614.258C928.56,637.857 955.111,627.283 1021.6,642.391C1051.26,649.129 1071.22,681.377 1087.9,707.553L1087.9,590.709C1082.13,587.828 1075.79,585.51 1068.47,583.822C1031.29,575.24 971.09,601.469 938.939,588.609C923.419,582.4 934.649,566.693 926.454,554.4C909.308,528.682 827.605,542.32 807.169,528.695C803.045,525.947 843.748,508.947 828.118,501.133C819.457,496.803 799.288,487.133 781.917,483.084C757.671,478.896 734.889,477.02 713.144,477.094Z" style="fill:rgb(137,161,60);fill-rule:nonzero;"/>
        <path d="M621.914,464.688C615.292,480.221 626.648,483.518 627.233,493.152C627.499,497.537 626.265,503.168 626.395,506.305C613.945,496.074 605.791,478.867 621.914,464.688Z" style="fill:rgb(103,121,51);fill-rule:nonzero;"/>
        <path d="M1078.88,522.729C1061.38,529.762 1067.74,541.336 1060.59,549.406C1057.34,553.076 1051.92,556.549 1049.54,559.127C1047.79,541.215 1054.95,521.186 1078.88,522.729Z" style="fill:rgb(103,121,51);fill-rule:nonzero;"/>
        <path d="M1031.86,524.131C1042.61,533.391 1035.27,540.09 1038.41,547.574C1039.83,550.98 1042.85,554.77 1043.92,557.182C1049.51,544.848 1049.27,528.844 1031.86,524.131Z" style="fill:rgb(103,121,51);fill-rule:nonzero;"/>
        <path d="M550.847,492.336C543.166,506.248 553.483,510.418 553.111,519.496C552.942,523.625 551.25,528.779 551.072,531.729C540.391,520.963 534.398,504.074 550.847,492.336Z" style="fill:rgb(103,121,51);fill-rule:nonzero;"/>
        <path d="M520.89,518.291C532.842,518.612 531.619,526.895 537.65,530.113C540.394,531.578 544.382,532.445 546.363,533.455C543.446,522.422 534.771,512.096 520.89,518.291Z" style="fill:rgb(103,121,51);fill-rule:nonzero;"/>
        <path d="M764.514,441.967C742.802,451.926 751.552,466.184 742.995,476.824C739.101,481.668 732.453,486.387 729.605,489.793C726.306,467.238 734.145,441.467 764.514,441.967Z" style="fill:rgb(103,121,51);fill-rule:nonzero;"/>
        <path d="M705.116,446.592C719.28,457.654 710.403,466.576 714.819,475.854C716.829,480.076 720.876,484.686 722.37,487.674C728.697,471.73 727.43,451.498 705.116,446.592Z" style="fill:rgb(103,121,51);fill-rule:nonzero;"/>
        <path d="M829.144,441.523C840.658,462.053 825.42,468.338 826.062,481.779C826.354,487.896 828.911,495.514 829.203,499.879C844.911,483.82 853.617,458.74 829.144,441.523Z" style="fill:rgb(103,121,51);fill-rule:nonzero;"/>
        <path d="M1004.13,595.166C976.762,612.787 991.315,630.334 981.825,646.34C977.506,653.623 969.448,661.271 966.263,666.416C957.463,636.627 963.067,600.35 1004.13,595.166Z" style="fill:rgb(69,81,35);fill-rule:nonzero;"/>
        <path d="M924.895,612.863C946.135,625.053 935.881,638.801 943.629,650.465C947.155,655.771 953.503,661.211 956.095,664.953C961.554,642.227 955.943,615.178 924.895,612.863Z" style="fill:rgb(69,81,35);fill-rule:nonzero;"/>
        <path d="M1063.8,629.516C1045.81,647.014 1059.49,658.049 1054.77,671.596C1052.62,677.758 1047.7,684.771 1046.08,689.145C1034.87,667.979 1033.56,639.707 1063.8,629.516Z" style="fill:rgb(69,81,35);fill-rule:nonzero;"/>
        <path d="M1006.63,654.998C1024.54,660.963 1018.9,672.918 1026.53,680.549C1030.01,684.021 1035.64,687.16 1038.17,689.594C1038.82,671.584 1030.45,652.002 1006.63,654.998Z" style="fill:rgb(69,81,35);fill-rule:nonzero;"/>
        <path d="M457.182,426.006L482.922,383.112L480.771,356.31L521.523,374.535L541.899,368.1L567.639,385.263L603.027,385.263L629.829,428.157L600.516,434.628L565.929,430.794L519.012,434.151L457.182,426.006Z" style="fill:rgb(145,111,125);fill-rule:nonzero;"/>
        <path d="M603.108,385.398L600.516,433.611L601.47,434.628L630.549,429.111L603.108,385.398Z" style="fill:rgb(109,84,94);fill-rule:nonzero;"/>
        <path d="M523.232,376.632L482.652,379.773L482.922,383.121L455.751,427.446L517.581,435.582L522.234,433.854L523.232,376.632Z" style="fill:rgb(72,55,62);fill-rule:nonzero;"/>
        <path d="M553.707,378.324L516.123,376.632L517.797,433.989L518.534,435.348L565.938,431.037L567.549,424.422L568.53,386.766L553.707,378.324Z" style="fill:rgb(109,84,94);fill-rule:nonzero;"/>
        <path d="M480.776,356.309L482.921,383.117L482.458,383.889L528.65,374.262L527.288,372.715L521.524,374.535L480.776,356.309Z" style="fill:rgb(109,84,94);fill-rule:nonzero;"/>
        <path d="M566.856,384.741L565.902,429.885L566.415,429.84L603.54,386.1L603.018,385.263L567.63,385.263L566.856,384.741Z" style="fill:rgb(72,55,62);fill-rule:nonzero;"/>
        <path d="M541.9,368.104L530.341,371.754L515.451,376.629L515.669,384.823L545.579,394.91L567.187,391.239L567.332,385.246L541.9,368.104Z" style="fill:rgb(145,111,125);fill-rule:nonzero;"/>
        <path d="M73.136,654.854C54.557,668.285 65.457,680.072 59.39,691.689C56.629,696.975 51.252,702.66 49.207,706.398C41.889,685.781 44.453,660.057 73.136,654.854Z" style="fill:rgb(102,129,55);fill-rule:nonzero;"/>
        <path d="M18.083,670.305C33.483,678.072 26.793,688.129 32.684,696.037C35.365,699.637 40.036,703.221 42.001,705.756C44.978,689.564 40.006,670.754 18.083,670.305Z" style="fill:rgb(102,129,55);fill-rule:nonzero;"/>
        <path d="M296.909,637.303C277.362,654.963 291.285,667.068 285.804,681.096C283.31,687.477 277.877,694.643 276.008,699.168C265.075,676.531 264.794,646.826 296.909,637.303Z" style="fill:rgb(102,129,55);fill-rule:nonzero;"/>
        <path d="M235.951,661.822C254.511,668.773 248.124,681.096 255.841,689.396C259.351,693.172 265.136,696.684 267.696,699.334C269.076,680.467 261.049,659.602 235.951,661.822Z" style="fill:rgb(102,129,55);fill-rule:nonzero;"/>
        <path d="M406.147,535.223C378.826,554.266 394.363,571.66 385.259,588.379C381.117,595.988 373.165,604.111 370.101,609.488C359.988,579.361 364.357,542.063 406.147,535.223Z" style="fill:rgb(102,129,55);fill-rule:nonzero;"/>
        <path d="M441.514,619.674C424.886,640.863 441.018,650.643 437.932,665.729C436.528,672.594 432.298,680.758 431.202,685.641C416.252,664.732 410.809,634.848 441.514,619.674Z" style="fill:rgb(102,129,55);fill-rule:nonzero;"/>
        <path d="M384.351,654.971C404.26,658.75 399.965,672.275 409.183,679.299C413.376,682.492 419.815,685.027 422.854,687.252C420.967,668.002 409.254,648.371 384.351,654.971Z" style="fill:rgb(102,129,55);fill-rule:nonzero;"/>
        <path d="M739.127,670.504C707.32,673.469 712.056,695.334 696.55,704.98C689.495,709.369 679.015,712.385 673.915,715.424C679.728,685.5 701.019,656.441 739.127,670.504Z" style="fill:rgb(102,129,55);fill-rule:nonzero;"/>
        <path d="M662.115,650.07C675.098,670.295 659.949,677.629 661.419,691.293C662.089,697.51 665.158,705.119 665.721,709.551C680.757,692.227 688.107,666.131 662.115,650.07Z" style="fill:rgb(102,129,55);fill-rule:nonzero;"/>
        <path d="M824.309,664.102C810.784,676.516 820.551,684.875 816.808,694.678C815.105,699.139 811.358,704.162 810.081,707.326C802.339,691.611 801.982,670.912 824.309,664.102Z" style="fill:rgb(102,129,55);fill-rule:nonzero;"/>
        <path d="M781.964,681.52C794.936,686.262 790.552,694.885 795.974,700.625C798.441,703.238 802.491,705.652 804.289,707.486C805.148,694.332 799.442,679.836 781.964,681.52Z" style="fill:rgb(102,129,55);fill-rule:nonzero;"/>
        <path d="M360.262,476.135C377.561,481.832 372.152,493.383 379.543,500.717C382.907,504.055 388.347,507.064 390.795,509.404C391.366,492.031 383.225,473.168 360.262,476.135Z" style="fill:rgb(137,161,60);fill-rule:nonzero;"/>
        <path d="M24.368,487.699C13.181,508.916 28.873,514.91 28.576,528.617C28.441,534.855 26.038,542.682 25.856,547.137C9.425,531.203 -0.111,505.891 24.368,487.699Z" style="fill:rgb(137,161,60);fill-rule:nonzero;"/>
        <path d="M304.172,455.445C316.115,471.934 303.65,478.857 305.543,490.344C306.405,495.568 309.363,501.859 310.049,505.58C321.943,490.215 326.918,467.795 304.172,455.445Z" style="fill:rgb(137,161,60);fill-rule:nonzero;"/>
        <path d="M483.506,474.682C466.211,491.619 479.442,502.219 474.928,515.302C472.874,521.252 468.15,528.033 466.601,532.258C455.727,511.877 454.371,484.611 483.506,474.682Z" style="fill:rgb(137,161,60);fill-rule:nonzero;"/>
        <path d="M677.846,568.617C691.858,584.107 679.914,592.553 683.121,604.057C684.58,609.293 688.294,615.379 689.409,619.098C699.833,602.105 702.417,578.686 677.846,568.617Z" style="fill:rgb(137,161,60);fill-rule:nonzero;"/>
        <path d="M942.892,667.924C919.849,667.918 921.783,683.939 909.999,689.826C904.636,692.504 896.909,693.967 893.042,695.809C899.225,674.707 916.467,655.266 942.892,667.924Z" style="fill:rgb(137,161,60);fill-rule:nonzero;"/>
        <path d="M888.955,648.078C896.921,663.477 885.548,667.727 885.687,677.637C885.75,682.146 887.444,687.818 887.55,691.039C899.512,679.607 906.543,661.359 888.955,648.078Z" style="fill:rgb(137,161,60);fill-rule:nonzero;"/>
        <path d="M798.316,600.65C807.3,615.602 796.152,620.598 796.925,630.541C797.277,635.066 799.34,640.652 799.653,643.879C810.934,631.635 816.828,612.861 798.316,600.65Z" style="fill:rgb(137,161,60);fill-rule:nonzero;"/>
        <path d="M424.665,476.135C407.366,481.832 412.775,493.383 405.382,500.717C402.019,504.055 396.579,507.064 394.13,509.404C393.56,492.031 401.702,473.168 424.665,476.135Z" style="fill:rgb(137,161,60);fill-rule:nonzero;"/>
        <path d="M516.627,449.325L443.853,432.09L462.342,416.694L455.751,427.446L517.581,435.582L518.481,435.248L518.534,435.348L565.938,431.037L565.995,430.801L600.516,434.628L601.306,434.453L601.47,434.628L630.549,429.111L618.662,410.175L620.568,409.563L641.574,436.401L600.408,447.408L566.415,438.795L516.627,449.325Z" style="fill:rgb(59,66,29);fill-rule:nonzero;"/>
        <path d="M600.516,434.628L565.995,430.801L566.225,429.857L566.415,429.84L583.137,410.139L583.227,410.121L601.51,415.12L600.516,433.611L601.306,434.453L600.516,434.628Z" style="fill:rgb(121,91,107);fill-rule:nonzero;"/>
        <path d="M601.47,434.628L601.306,434.453L600.516,433.611L601.51,415.12L602.451,415.377L618.662,410.175L630.549,429.111L601.47,434.628Z" style="fill:rgb(91,70,83);fill-rule:nonzero;"/>
        <path d="M517.581,435.582L455.751,427.446L462.342,416.694L463.491,415.737L517.511,424.196L517.797,433.989L518.481,435.248L517.581,435.582Z" style="fill:rgb(62,46,58);fill-rule:nonzero;"/>
        <path d="M518.534,435.348L518.481,435.248L517.797,433.989L517.511,424.196L517.572,424.206L565.938,413.496L566.25,413.435L565.902,429.885L566.225,429.857L565.995,430.801L565.938,431.037L518.534,435.348Z" style="fill:rgb(91,70,83);fill-rule:nonzero;"/>
        <path d="M565.902,429.885L566.25,413.435L583.137,410.139L566.415,429.84L566.225,429.857L565.902,429.885Z" style="fill:rgb(62,46,58);fill-rule:nonzero;"/>
        <path d="M399.204,378.678C378.809,392.211 389.932,405.252 382.962,417.385C379.792,422.904 373.812,428.74 371.471,432.641C364.546,410.334 368.382,383.002 399.204,378.678Z" style="fill:rgb(69,81,35);fill-rule:nonzero;"/>
        <path d="M339.813,392.805C355.91,401.75 348.342,412.191 354.288,420.881C356.994,424.836 361.824,428.859 363.81,431.646C367.679,414.502 363.181,394.223 339.813,392.805Z" style="fill:rgb(69,81,35);fill-rule:nonzero;"/>
        <path d="M1016.34,437.66C1029.3,452.539 1017.86,460.299 1020.69,471.221C1021.97,476.189 1025.37,482.004 1026.35,485.537C1036.5,469.678 1039.36,447.609 1016.34,437.66Z" style="fill:rgb(69,81,35);fill-rule:nonzero;"/>
        <path d="M1001.98,438.549C985.346,443.883 990.454,454.998 983.314,461.977C980.065,465.15 974.827,467.998 972.462,470.223C972.036,453.561 979.973,435.537 1001.98,438.549Z" style="fill:rgb(69,81,35);fill-rule:nonzero;"/>
        <path d="M958.454,436.725C967.771,445.99 960.548,451.693 962.946,458.813C964.037,462.053 966.572,465.754 967.396,468.053C973.378,457.031 974.224,442.232 958.454,436.725Z" style="fill:rgb(69,81,35);fill-rule:nonzero;"/>
        <path d="M300.705,369.687C283.058,393.765 301.283,404.009 298.414,420.831C297.108,428.486 292.72,437.684 291.683,443.133C274.364,420.516 267.246,387.613 300.705,369.687Z" style="fill:rgb(69,81,35);fill-rule:nonzero;"/>
        <path d="M238.671,410.865C260.862,414.326 256.597,429.465 267.063,436.908C271.825,440.295 279.048,442.867 282.496,445.221C279.706,423.967 266.017,402.648 238.671,410.865Z" style="fill:rgb(69,81,35);fill-rule:nonzero;"/>
        <path d="M722.316,387.417C700.897,392.531 706.254,406.993 696.609,415.083C692.22,418.764 685.362,421.842 682.176,424.41C683.236,403.424 694.942,381.523 722.316,387.417Z" style="fill:rgb(69,81,35);fill-rule:nonzero;"/>
        <path d="M667.773,380.956C678.599,393.497 668.972,399.975 671.304,409.156C672.365,413.334 675.199,418.229 676.013,421.199C684.591,407.914 687.072,389.392 667.773,380.956Z" style="fill:rgb(69,81,35);fill-rule:nonzero;"/>
        <path d="M504.368,392.189C492.865,404.656 502.497,411.609 499.799,420.927C498.573,425.166 495.507,430.078 494.573,433.09C486.245,419.207 484.333,400.168 504.368,392.189Z" style="fill:rgb(69,81,35);fill-rule:nonzero;"/>
        <path d="M448.335,396.954C470.08,402.914 464.108,417.53 473.705,426.135C478.071,430.051 484.985,433.432 488.158,436.17C487.784,414.657 476.546,391.85 448.335,396.954Z" style="fill:rgb(69,81,35);fill-rule:nonzero;"/>
        <path d="M63.079,387.453C80.439,396.822 72.47,408.107 78.954,417.338C81.904,421.537 87.131,425.785 89.296,428.744C93.215,410.328 88.129,388.665 63.079,387.453Z" style="fill:rgb(49,57,24);fill-rule:nonzero;"/>
        <path d="M49.943,393.34C36.254,404.188 44.947,412.792 40.72,421.837C38.796,425.953 34.895,430.461 33.464,433.375C27.202,417.93 28.289,398.266 49.943,393.34Z" style="fill:rgb(49,57,24);fill-rule:nonzero;"/>
        <path d="M8.563,406.951C20.545,412.344 15.792,420.224 20.541,426.045C22.702,428.693 26.378,431.264 27.958,433.127C29.68,420.705 25.263,406.557 8.563,406.951Z" style="fill:rgb(49,57,24);fill-rule:nonzero;"/>
        <path d="M915.816,373.313C894.621,385.552 904.912,399.26 897.202,410.936C893.694,416.248 887.363,421.699 884.784,425.447C879.258,402.754 884.787,375.713 915.816,373.313Z" style="fill:rgb(49,57,24);fill-rule:nonzero;"/>
        <path d="M855.664,383.722C871.172,393.649 862.97,403.602 868.365,412.643C870.82,416.758 875.391,421.073 877.201,423.979C882.127,407.108 878.897,386.59 855.664,383.722Z" style="fill:rgb(49,57,24);fill-rule:nonzero;"/>
        <path d="M1062.31,393.361C1047.85,402.229 1055.22,411.541 1050.09,419.771C1047.76,423.518 1043.47,427.41 1041.75,430.055C1037.52,414.428 1040.86,395.588 1062.31,393.361Z" style="fill:rgb(49,57,24);fill-rule:nonzero;"/>
        <path d="M1007.09,382.699C1026.4,394.351 1016.67,406.791 1023.56,417.683C1026.7,422.639 1032.43,427.773 1034.74,431.271C1040.24,410.469 1035.63,385.465 1007.09,382.699Z" style="fill:rgb(49,57,24);fill-rule:nonzero;"/>
        <path d="M1087.47,340.306L1024.19,343.533L984.38,330.785L990.532,313.191L1016.4,324.083L1004.67,326.254L1011.13,323.734L990.395,322.065L1004.05,334.393L1067.2,338.403L1087.47,340.306Z" style="fill:rgb(105,67,31);fill-rule:nonzero;"/>
        <path d="M877.316,300.924L947.495,308.726L968.784,316.333L972.354,316.736L950.833,314.677L877.316,300.924Z" style="fill:rgb(105,67,31);fill-rule:nonzero;"/>
        <path d="M919.228,315.101L930.316,328.218L949.72,332.639L975.769,336.185L969.001,330.221L935.819,326.788L919.228,315.101Z" style="fill:rgb(105,67,31);fill-rule:nonzero;"/>
        <path d="M896.462,312.182C894.757,310.613 891.347,308.85 891.347,308.85L886.18,315.679L914.854,321.204L906.839,323.76C906.839,323.76 889.48,318.682 880.8,316.143C884.591,312.607 888.381,309.07 892.172,305.534C893.602,307.75 895.032,309.966 896.461,312.182L896.462,312.182Z" style="fill:rgb(105,67,31);fill-rule:nonzero;"/>
        <path d="M1023.85,323.821L1064.67,329.104L1080.47,325.178L1023.85,323.821Z" style="fill:rgb(105,67,31);fill-rule:nonzero;"/>
        <path d="M188.195,248.427L200.335,396.587L185.04,437.666L162.188,424.188L173.015,403.846L176.949,395.637L176.533,422.639L195.298,396.045L187.505,261.418L188.195,248.427Z" style="fill:rgb(62,39,20);fill-rule:nonzero;"/>
        <path d="M187.683,160.8L174.88,229.2L178.021,261.592L185.851,335.727L170.224,241.416L172.071,211.149L187.683,160.8Z" style="fill:rgb(62,39,20);fill-rule:nonzero;"/>
        <path d="M134.334,361.37L124.281,401.006L122.288,453.279L104.264,487.236L119.988,452.125L120.555,396.655L134.334,361.37Z" style="fill:rgb(62,39,20);fill-rule:nonzero;"/>
        <path d="M299.417,201.097L262,225.63L250.012,221.646L264.014,220.299L299.417,201.097Z" style="fill:rgb(62,39,20);fill-rule:nonzero;"/>
        <path d="M128.567,103.036C120.213,103.036 112.697,104.91 107.468,107.901C98.521,110.932 92.599,116.204 92.599,122.198C92.599,131.597 107.151,139.214 125.103,139.214C143.055,139.214 157.609,131.597 157.609,122.198C157.609,121.159 157.429,120.141 157.087,119.152C157.142,118.774 157.168,118.392 157.168,118.006C157.168,109.737 144.364,103.036 128.567,103.036ZM47.161,31.302C27.05,31.302 10.744,39.837 10.744,50.366C10.744,57.727 18.713,64.114 30.381,67.291C31.693,75.737 43.813,82.584 59.49,84.036C59.473,84.263 59.463,84.49 59.463,84.719C59.463,94.698 74.915,102.786 93.976,102.786C113.037,102.786 128.488,94.698 128.488,84.719C128.488,76.013 116.724,68.746 101.065,67.034L101.082,66.898C115.489,66.009 126.667,59.595 126.667,51.813C126.667,43.423 113.672,36.62 97.645,36.62C90.215,36.62 83.441,38.081 78.308,40.484C71.921,34.979 60.362,31.302 47.161,31.302ZM183.729,7.088C164.421,7.088 148.766,15.28 148.766,25.389C148.766,26.69 149.031,27.961 149.524,29.186C142.378,30.685 137.328,34.344 137.328,38.621C137.328,44.233 146.019,48.784 156.739,48.784C164.455,48.784 171.119,46.426 174.248,43.013C176.174,43.296 178.167,43.494 180.212,43.601C185.018,46.955 192.675,49.125 201.3,49.125C201.799,49.125 202.297,49.12 202.789,49.105C203.846,49.623 204.966,50.103 206.142,50.549C204.625,52.244 203.776,54.135 203.776,56.131C203.776,56.399 203.794,56.667 203.824,56.932C199.373,58.754 196.188,61.386 195.078,64.403C191.2,59.716 182.288,56.435 171.911,56.435C159.376,56.435 148.976,61.219 147.009,67.49C140.907,69.957 136.973,73.825 136.973,78.174C136.973,85.624 148.51,91.666 162.742,91.666C163.569,91.666 164.388,91.645 165.195,91.605C156.787,92.961 150.675,97.06 150.675,101.907C150.675,107.859 159.892,112.685 171.263,112.685C182.633,112.685 191.851,107.859 191.851,101.907C191.851,101.76 191.846,101.615 191.834,101.47C194.362,101.919 197.068,102.164 199.885,102.164C200.942,102.164 201.985,102.128 203.009,102.062C203.488,102.075 203.971,102.083 204.456,102.083C206.532,102.083 208.555,101.967 210.507,101.751C211.763,101.82 213.038,101.856 214.328,101.856C234.297,101.856 250.487,93.382 250.487,82.927C250.487,78.104 247.039,73.703 241.367,70.36C241.927,69.379 242.262,68.35 242.343,67.284C249.411,64.951 254.107,60.828 254.107,56.13C254.107,53.425 252.549,50.913 249.877,48.821C250.777,48.359 251.627,47.869 252.425,47.357C264.716,44.768 273.393,38.467 273.393,31.105C273.393,21.434 258.419,13.593 239.945,13.593C232.402,13.593 225.442,14.9 219.847,17.105C217.866,16.562 215.756,16.132 213.544,15.831C207.396,10.586 196.345,7.088 183.729,7.088Z" style="fill:rgb(136,166,61);fill-rule:nonzero;"/>
        <path d="M942.088,3.673C934.142,3.673 926.833,5.033 921.039,7.311C920.289,7.286 919.532,7.27 918.767,7.27C900.484,7.27 885.661,14.67 885.661,23.798C885.661,27.931 888.699,31.709 893.723,34.606C877.733,38.44 866.696,46.598 866.696,56.045C866.696,66.18 878.583,80.54 897.289,78.255C902.957,82.033 910.887,84.913 920.078,86.399C924.274,94.483 938.985,100.452 956.491,100.452C973.132,100.452 979.925,94.141 984.883,86.663C986.875,86.811 988.917,86.886 990.991,86.886C1000.2,86.886 1004.12,88.127 1010.99,85.582C1003.83,89.376 1004.03,91.74 1004.03,97.362C1004.03,99.907 1004.93,102.345 1006.57,104.605C1000.32,105.524 994.626,107.083 989.779,109.128C987.13,108.601 984.242,108.309 981.216,108.309C968.437,108.309 958.079,113.48 958.079,119.859C958.079,123.633 961.703,126.986 967.309,129.094C962.559,131.85 959.684,135.435 959.684,139.355C959.684,148.047 973.8,155.092 991.21,155.092C1000.56,155.092 1008.96,153.058 1014.74,149.828C1016.36,149.914 1018.01,149.958 1019.69,149.958C1045.29,149.958 1066.05,139.594 1066.05,126.811C1066.05,123.355 1064.53,120.075 1061.81,117.13C1077.69,114.061 1088,106.497 1088,97.49C1088,85.783 1069.93,76.167 1046.48,76.167C1036.97,76.167 1031.85,76.811 1024.78,79.449C1031.12,76.066 1031.54,72.534 1032.17,67.613C1033.85,67.752 1035.57,67.828 1037.33,67.828C1054.66,67.828 1068.7,60.818 1068.7,52.169C1068.7,43.519 1054.66,36.505 1037.33,36.505C1023.34,36.505 1011.49,41.079 1007.45,47.395C1002.41,46.299 996.842,45.687 990.991,45.687C981.138,45.687 979.419,48.33 972.325,51.207C967.923,48.06 961.993,45.486 955.071,43.752C952.242,41.419 948.63,39.346 944.42,37.628C962.137,37.029 976.141,29.667 976.141,20.671C976.141,11.283 960.893,3.673 942.088,3.673Z" style="fill:rgb(136,166,61);fill-rule:nonzero;"/>
        <path d="M421.626,419.174C413.537,419.907 405.525,420.674 397.612,421.477C403.365,424.523 413.121,426.053 408.877,431.123C405.115,435.619 392.189,434.09 386,436.082C366.079,442.496 386.509,457.449 406.857,461.373C424.497,464.775 446.644,465.859 458.768,465.299C484.045,464.129 497.856,453.16 500.102,446.006C487.561,448.555 421.063,462.211 416.047,442.146C414.686,436.699 447.564,436.469 440.027,429.467C433.183,423.107 426.753,420.173 421.626,419.174Z" style="fill:rgb(83,98,43);fill-rule:nonzero;"/>
    </g>
</svg>
